<?xml version="1.0" encoding="utf-8"?>
<svg version="1.1" id="Layer_1" xmlns="http://www.w3.org/2000/svg" xmlns:xlink="http://www.w3.org/1999/xlink" x="0px" y="0px"
	 viewBox="0 0 229.8 231.7" style="enable-background:new 0 0 229.8 231.7;" xml:space="preserve">
<style type="text/css">
	.st0{display:none;fill:#E6DFEF;}
	.st1{fill:#34017B;}
</style>
<path class="st0" d="M581.2,250.1H15.9c-22.1,0-40-17.9-40-40v-184c0-22.1,17.9-40,40-40h565.3c22.1,0,40,17.9,40,40v184
	C621.2,232.2,603.3,250.1,581.2,250.1z"/>
<g>
	<path class="st1" d="M216.5,74.5c-10-26.9-35.6-52.9-62.2-63c-20.5-7.7-44-9.6-64-5.2c-14.6,3.3-35,13.2-46.4,22.8
		C27.7,42.8,16.1,60.2,8.8,81.2c-4,12.1-4.1,13.1-4.3,33.4c0,23.5,1.4,30.6,9.3,48l4.4,10l-6.7,25.8c-3.6,14.2-6.5,26-6.2,26.2
		c0.3,0.4,11.9-2.5,25.9-6.3l25.5-7l10,5c16.1,7.9,25.4,9.7,48.6,9.7c19.3-0.1,20.6-0.3,32.6-4.5C208.8,200.6,239,135.6,216.5,74.5z
		 M142.8,193.1c-8.5,3.4-12.2,4.1-24.9,4.6c-17,0.7-26.2-1.2-40-7.6l-8.2-3.9l-17.4,4.7c-9.6,2.6-17.9,4.5-18.3,3.9
		c-0.4-0.4,1.4-8.8,4-18.6l4.8-18l-3.2-7.5c-5.8-13.2-7.5-22.6-7-38.6c0.4-11.5,1.3-16.7,4-24.4C45.7,62.2,67,42.5,93.5,35.3
		c12.3-3.4,32.8-2.9,45.1,1.2c24.5,8,45.5,29.1,53.2,53.9c1.6,4.7,3,13.9,3.4,20.5C197.3,146.9,176.4,179.6,142.8,193.1z"/>
	<path class="st1" d="M102.6,92.4C97.2,88.4,85,88.2,78.4,92c-16.2,9.6-13.6,35.4,4.3,40.9c3.8,1.3,3.6,2.9-1,11.8
		c-2.2,4.1-3.6,7.3-3.2,7.3c2.6,0,14.1-7.3,19.7-12.5C114.3,125,116.3,102.7,102.6,92.4z"/>
	<path class="st1" d="M148.6,91.3c-6.1-3-16.1-2.9-21,0.3c-9.6,5.9-13.9,15.7-11.1,26c1.6,5.8,7.4,12.5,13.1,14.8
		c4.8,2,4.8,4.1,0,12.9c-3.6,6.7-3.6,7-0.9,6c8.9-2.8,22.9-15.1,27.9-24.8c4.8-9.3,4.8-20.5,0-27.8C154.7,95.8,151,92.5,148.6,91.3z
		"/>
</g>
</svg>
