<?xml version="1.0" encoding="utf-8"?>
<svg version="1.1" id="Layer_1" xmlns="http://www.w3.org/2000/svg" xmlns:xlink="http://www.w3.org/1999/xlink" x="0px" y="0px"
	 viewBox="0 0 645.3 264" style="enable-background:new 0 0 645.3 264;" xml:space="preserve">
<style type="text/css">
	.st0{display:none;fill:#E6DFEF;}
	.st1{fill:#34017B;}
</style>
<path class="st0" d="M605.3,264H40c-22.1,0-40-17.9-40-40V40C0,17.9,17.9,0,40,0h565.3c22.1,0,40,17.9,40,40v184
	C645.3,246.1,627.4,264,605.3,264z"/>
<g>
	<path class="st1" d="M240.6,88.4c-10-26.9-35.6-52.9-62.2-63c-20.5-7.7-44-9.6-64-5.2C99.8,23.5,79.4,33.4,68,43
		C51.8,56.7,40.2,74.1,32.9,95.1c-4,12.1-4.1,13.1-4.3,33.4c0,23.5,1.4,30.6,9.3,48l4.4,10l-6.7,25.8c-3.6,14.2-6.5,26-6.2,26.2
		c0.3,0.4,11.9-2.5,25.9-6.3l25.5-7l10,5c16.1,7.9,25.4,9.7,48.6,9.7c19.3-0.1,20.6-0.3,32.6-4.5
		C232.9,214.5,263.1,149.5,240.6,88.4z M166.9,207c-8.5,3.4-12.2,4.1-24.9,4.6c-17,0.7-26.2-1.2-40-7.6l-8.2-3.9l-17.4,4.7
		c-9.6,2.6-17.9,4.5-18.3,3.9c-0.4-0.4,1.4-8.8,4-18.6l4.8-18l-3.2-7.5c-5.8-13.2-7.5-22.6-7-38.6c0.4-11.5,1.3-16.7,4-24.4
		c9.1-25.6,30.3-45.3,56.9-52.5c12.3-3.4,32.8-2.9,45.1,1.2c24.5,8,45.5,29.1,53.2,53.9c1.6,4.7,3,13.9,3.4,20.5
		C221.4,160.8,200.6,193.5,166.9,207z"/>
	<path class="st1" d="M126.7,106.2c-5.4-3.9-17.6-4.2-24.2-0.4c-16.2,9.6-13.6,35.4,4.3,40.9c3.8,1.3,3.6,2.9-1,11.8
		c-2.2,4.1-3.6,7.3-3.2,7.3c2.6,0,14.1-7.3,19.7-12.5C138.4,138.9,140.4,116.6,126.7,106.2z"/>
	<path class="st1" d="M172.7,105.2c-6.1-3-16.1-2.9-21,0.3c-9.6,5.9-13.9,15.7-11.1,26c1.6,5.8,7.4,12.5,13.1,14.8
		c4.8,2,4.8,4.1,0,12.9c-3.6,6.7-3.6,7-0.9,6c8.9-2.8,22.9-15.1,27.9-24.8c4.8-9.3,4.8-20.5,0-27.8
		C178.8,109.6,175.2,106.4,172.7,105.2z"/>
</g>
<g>
	<g>
		<path class="st1" d="M296.4,128.8c0-23.3,13-37,31.7-37s31.7,13.8,31.7,37c0,23.3-13,37.6-31.7,37.6S296.4,152.1,296.4,128.8z
			 M346.8,128.8c0-16.1-7.3-25.9-18.6-25.9c-11.3,0-18.6,9.8-18.6,25.9c0,16.8,7.3,27.1,18.6,27.1
			C339.5,155.9,346.8,145.6,346.8,128.8z M321.7,164.6l13.1-1.2c2.8,7.2,10,10.3,17.7,10.3c3.2,0,5.8-0.5,7.8-1.1l2.3,9.5
			c-2.4,1.1-6.6,2-11.5,2C336.2,184.1,326.1,175.8,321.7,164.6z"/>
		<path class="st1" d="M374.2,133.5V93.1H387v41.4c0,15.7,5.9,20.8,14.6,20.8c8.8,0,14.9-5.1,14.9-20.8V93.1h12.3v40.4
			c0,23.6-10.5,32.9-27.1,32.9C384.9,166.4,374.2,157.1,374.2,133.5z"/>
		<path class="st1" d="M443.1,128.8c0-23.3,13-37,31.7-37s31.7,13.8,31.7,37c0,23.3-13,37.6-31.7,37.6S443.1,152.1,443.1,128.8z
			 M493.4,128.8c0-16.1-7.3-25.9-18.6-25.9c-11.3,0-18.6,9.8-18.6,25.9c0,16.1,7.3,26.5,18.6,26.5
			C486.1,155.3,493.4,144.9,493.4,128.8z"/>
		<path class="st1" d="M535.7,103.8H515V93.1h54.3v10.7h-20.8V165h-12.8V103.8z"/>
		<path class="st1" d="M593.5,138.3l-21.6-45.2h13.6l7.8,18.4c2.1,5.3,4.1,10.3,6.4,15.8h0.4c2.3-5.5,4.5-10.5,6.6-15.8l7.8-18.4
			h13.3l-21.6,45.2V165h-12.8V138.3z"/>
	</g>
</g>
</svg>
